<?xml version="1.0" encoding="utf-8" standalone="no"?>
<!DOCTYPE svg PUBLIC "-//W3C//DTD SVG 1.1//EN"
  "http://www.w3.org/Graphics/SVG/1.1/DTD/svg11.dtd">
<!-- Created with matplotlib (https://matplotlib.org/) -->
<svg height="309.812pt" version="1.1" viewBox="0 0 411.130938 309.812" width="411.130938pt" xmlns="http://www.w3.org/2000/svg" xmlns:xlink="http://www.w3.org/1999/xlink">
 <defs>
  <style type="text/css">
*{stroke-linecap:butt;stroke-linejoin:round;}
  </style>
 </defs>
 <g id="figure_1">
  <g id="patch_1">
   <path d="M 0 309.812 
L 411.130938 309.812 
L 411.130938 0 
L 0 0 
z
" style="fill:#ffffff;"/>
  </g>
  <g id="axes_1">
   <g id="patch_2">
    <path d="M 46.810938 273.312 
L 403.930938 273.312 
L 403.930938 7.2 
L 46.810938 7.2 
z
" style="fill:#ffffff;"/>
   </g>
   <g id="matplotlib.axis_1">
    <g id="xtick_1">
     <g id="line2d_1">
      <path clip-path="url(#pe67425b6e5)" d="M 92.557714 273.312 
L 92.557714 7.2 
" style="fill:none;stroke:#b0b0b0;stroke-linecap:square;stroke-width:0.8;"/>
     </g>
     <g id="line2d_2">
      <defs>
       <path d="M 0 0 
L 0 3.5 
" id="m3678e5476a" style="stroke:#000000;stroke-width:0.8;"/>
      </defs>
      <g>
       <use style="stroke:#000000;stroke-width:0.8;" x="92.557714" xlink:href="#m3678e5476a" y="273.312"/>
      </g>
     </g>
     <g id="text_1">
      <!-- 28 -->
      <defs>
       <path d="M 50.484375 0 
L 3.078125 0 
Q 3.078125 6.0625 7.296875 12.25 
Q 11.53125 18.453125 23.09375 27.78125 
Q 30.171875 33.453125 35.734375 39.671875 
Q 41.3125 45.90625 41.3125 52.203125 
Q 41.3125 57.625 37.46875 61.15625 
Q 33.640625 64.703125 27.78125 64.703125 
Q 21.875 64.703125 17.875 61.0625 
Q 13.875 57.421875 13.8125 50.203125 
L 4.78125 51.21875 
Q 5.609375 61.28125 11.9375 66.59375 
Q 18.265625 71.921875 27.984375 71.921875 
Q 38.53125 71.921875 44.40625 66.078125 
Q 50.296875 60.25 50.296875 52 
Q 50.296875 45.125 45.328125 38.0625 
Q 40.375 31 25.59375 19.1875 
Q 17.828125 12.984375 15.28125 8.5 
L 50.484375 8.5 
z
" id="ArialUnicodeMS-50"/>
       <path d="M 37.890625 38.71875 
Q 51.3125 34.421875 51.3125 20.40625 
Q 51.3125 11.1875 44.71875 4.984375 
Q 38.140625 -1.21875 27.78125 -1.21875 
Q 17.328125 -1.21875 10.765625 5.03125 
Q 4.203125 11.28125 4.203125 20.703125 
Q 4.203125 27.484375 7.890625 32.5625 
Q 11.578125 37.640625 17.828125 38.71875 
L 17.828125 38.921875 
Q 7.078125 42.234375 7.078125 53.421875 
Q 7.078125 61.328125 12.734375 66.625 
Q 18.40625 71.921875 27.59375 71.921875 
Q 36.921875 71.921875 42.65625 66.453125 
Q 48.390625 60.984375 48.390625 53.21875 
Q 48.390625 42.671875 37.890625 38.921875 
z
M 27.78125 42.1875 
Q 32.71875 42.1875 36.0625 45.328125 
Q 39.40625 48.484375 39.40625 53.21875 
Q 39.40625 58.0625 36.015625 61.375 
Q 32.625 64.703125 27.6875 64.703125 
Q 22.65625 64.703125 19.375 61.421875 
Q 16.109375 58.15625 16.109375 53.71875 
Q 16.109375 48.390625 19.484375 45.28125 
Q 22.859375 42.1875 27.78125 42.1875 
z
M 27.78125 6 
Q 33.984375 6 38.125 10 
Q 42.28125 14.015625 42.28125 20.40625 
Q 42.28125 26.8125 38 30.90625 
Q 33.734375 35.015625 27.59375 35.015625 
Q 21.1875 35.015625 17.1875 30.78125 
Q 13.1875 26.5625 13.1875 20.609375 
Q 13.1875 14.40625 17.3125 10.203125 
Q 21.4375 6 27.78125 6 
z
" id="ArialUnicodeMS-56"/>
      </defs>
      <g transform="translate(86.996777 287.469812)scale(0.1 -0.1)">
       <use xlink:href="#ArialUnicodeMS-50"/>
       <use x="55.615234" xlink:href="#ArialUnicodeMS-56"/>
      </g>
     </g>
    </g>
    <g id="xtick_2">
     <g id="line2d_3">
      <path clip-path="url(#pe67425b6e5)" d="M 151.585814 273.312 
L 151.585814 7.2 
" style="fill:none;stroke:#b0b0b0;stroke-linecap:square;stroke-width:0.8;"/>
     </g>
     <g id="line2d_4">
      <g>
       <use style="stroke:#000000;stroke-width:0.8;" x="151.585814" xlink:href="#m3678e5476a" y="273.312"/>
      </g>
     </g>
     <g id="text_2">
      <!-- 30 -->
      <defs>
       <path d="M 37.890625 38.71875 
Q 44.53125 37.453125 47.921875 32.296875 
Q 51.3125 27.15625 51.3125 21.09375 
Q 51.3125 11.328125 44.203125 5.046875 
Q 37.109375 -1.21875 27.203125 -1.21875 
Q 17.71875 -1.21875 11.5625 4.296875 
Q 5.421875 9.8125 4.390625 18.890625 
L 13.1875 20.125 
Q 14.5 13.03125 17.984375 9.515625 
Q 21.484375 6 27.203125 6 
Q 33.34375 6 37.609375 10.328125 
Q 41.890625 14.65625 41.890625 20.90625 
Q 41.890625 26.90625 38 30.859375 
Q 34.125 34.8125 27.875 34.8125 
Q 25.34375 34.8125 21.6875 33.890625 
L 22.703125 41.609375 
Q 26.21875 41.609375 28.265625 41.9375 
Q 30.328125 42.28125 32.859375 43.59375 
Q 35.40625 44.921875 37.0625 47.390625 
Q 38.71875 49.859375 38.71875 53.515625 
Q 38.71875 58.84375 35.171875 61.765625 
Q 31.640625 64.703125 27 64.703125 
Q 21.6875 64.703125 18.328125 61.328125 
Q 14.984375 57.953125 14.109375 51.703125 
L 5.328125 53.328125 
Q 7.03125 62.640625 12.859375 67.28125 
Q 18.703125 71.921875 26.8125 71.921875 
Q 35.75 71.921875 41.71875 66.53125 
Q 47.703125 61.140625 47.703125 53.328125 
Q 47.703125 43.3125 37.890625 38.921875 
z
" id="ArialUnicodeMS-51"/>
       <path d="M 27.78125 71.921875 
Q 51.125 71.921875 51.125 35.296875 
Q 51.125 16.796875 45.09375 7.78125 
Q 39.0625 -1.21875 27.78125 -1.21875 
Q 4.5 -1.21875 4.5 35.296875 
Q 4.5 53.8125 10.515625 62.859375 
Q 16.546875 71.921875 27.78125 71.921875 
z
M 27.78125 6 
Q 34.859375 6 38.46875 12.859375 
Q 42.09375 19.734375 42.09375 35.296875 
Q 42.09375 46.140625 40.5 52.359375 
Q 38.921875 58.59375 35.71875 61.640625 
Q 32.515625 64.703125 27.6875 64.703125 
Q 20.609375 64.703125 17.046875 57.71875 
Q 13.484375 50.734375 13.484375 35.296875 
Q 13.484375 24.609375 15.09375 18.359375 
Q 16.703125 12.109375 19.875 9.046875 
Q 23.046875 6 27.78125 6 
z
" id="ArialUnicodeMS-48"/>
      </defs>
      <g transform="translate(146.024876 287.469812)scale(0.1 -0.1)">
       <use xlink:href="#ArialUnicodeMS-51"/>
       <use x="55.615234" xlink:href="#ArialUnicodeMS-48"/>
      </g>
     </g>
    </g>
    <g id="xtick_3">
     <g id="line2d_5">
      <path clip-path="url(#pe67425b6e5)" d="M 210.613913 273.312 
L 210.613913 7.2 
" style="fill:none;stroke:#b0b0b0;stroke-linecap:square;stroke-width:0.8;"/>
     </g>
     <g id="line2d_6">
      <g>
       <use style="stroke:#000000;stroke-width:0.8;" x="210.613913" xlink:href="#m3678e5476a" y="273.312"/>
      </g>
     </g>
     <g id="text_3">
      <!-- 32 -->
      <g transform="translate(205.052975 287.469812)scale(0.1 -0.1)">
       <use xlink:href="#ArialUnicodeMS-51"/>
       <use x="55.615234" xlink:href="#ArialUnicodeMS-50"/>
      </g>
     </g>
    </g>
    <g id="xtick_4">
     <g id="line2d_7">
      <path clip-path="url(#pe67425b6e5)" d="M 269.642012 273.312 
L 269.642012 7.2 
" style="fill:none;stroke:#b0b0b0;stroke-linecap:square;stroke-width:0.8;"/>
     </g>
     <g id="line2d_8">
      <g>
       <use style="stroke:#000000;stroke-width:0.8;" x="269.642012" xlink:href="#m3678e5476a" y="273.312"/>
      </g>
     </g>
     <g id="text_4">
      <!-- 34 -->
      <defs>
       <path d="M 50.984375 17.09375 
L 41.3125 17.09375 
L 41.3125 0 
L 32.515625 0 
L 32.515625 17.09375 
L 1.515625 17.09375 
L 1.515625 25.203125 
L 34.078125 71.578125 
L 41.3125 71.578125 
L 41.3125 25.203125 
L 50.984375 25.203125 
z
M 32.515625 25.203125 
L 32.515625 57.515625 
L 32.328125 57.515625 
L 10.109375 25.203125 
z
" id="ArialUnicodeMS-52"/>
      </defs>
      <g transform="translate(264.081074 287.469812)scale(0.1 -0.1)">
       <use xlink:href="#ArialUnicodeMS-51"/>
       <use x="55.615234" xlink:href="#ArialUnicodeMS-52"/>
      </g>
     </g>
    </g>
    <g id="xtick_5">
     <g id="line2d_9">
      <path clip-path="url(#pe67425b6e5)" d="M 328.670111 273.312 
L 328.670111 7.2 
" style="fill:none;stroke:#b0b0b0;stroke-linecap:square;stroke-width:0.8;"/>
     </g>
     <g id="line2d_10">
      <g>
       <use style="stroke:#000000;stroke-width:0.8;" x="328.670111" xlink:href="#m3678e5476a" y="273.312"/>
      </g>
     </g>
     <g id="text_5">
      <!-- 36 -->
      <defs>
       <path d="M 13.09375 36.921875 
Q 19.140625 46.390625 30.328125 46.390625 
Q 39.109375 46.390625 45.265625 39.890625 
Q 51.421875 33.40625 51.421875 23.296875 
Q 51.421875 13.09375 45.28125 5.9375 
Q 39.15625 -1.21875 29 -1.21875 
Q 18.703125 -1.21875 11.453125 6.390625 
Q 4.203125 14.015625 4.203125 33.5 
Q 4.203125 52.640625 10.765625 62.28125 
Q 17.328125 71.921875 29.78125 71.921875 
Q 37.84375 71.921875 43.40625 67.421875 
Q 48.96875 62.9375 50.203125 54.109375 
L 41.40625 53.328125 
Q 39.015625 64.703125 29.296875 64.703125 
Q 22.5625 64.703125 17.71875 58 
Q 12.890625 51.3125 12.890625 36.921875 
z
M 28.8125 6 
Q 34.859375 6 38.625 10.875 
Q 42.390625 15.765625 42.390625 22.703125 
Q 42.390625 29.640625 38.625 34.171875 
Q 34.859375 38.71875 28.515625 38.71875 
Q 22.703125 38.71875 18.5 34.4375 
Q 14.3125 30.171875 14.3125 23.1875 
Q 14.3125 16.0625 18.4375 11.03125 
Q 22.5625 6 28.8125 6 
z
" id="ArialUnicodeMS-54"/>
      </defs>
      <g transform="translate(323.109174 287.469812)scale(0.1 -0.1)">
       <use xlink:href="#ArialUnicodeMS-51"/>
       <use x="55.615234" xlink:href="#ArialUnicodeMS-54"/>
      </g>
     </g>
    </g>
    <g id="xtick_6">
     <g id="line2d_11">
      <path clip-path="url(#pe67425b6e5)" d="M 387.69821 273.312 
L 387.69821 7.2 
" style="fill:none;stroke:#b0b0b0;stroke-linecap:square;stroke-width:0.8;"/>
     </g>
     <g id="line2d_12">
      <g>
       <use style="stroke:#000000;stroke-width:0.8;" x="387.69821" xlink:href="#m3678e5476a" y="273.312"/>
      </g>
     </g>
     <g id="text_6">
      <!-- 38 -->
      <g transform="translate(382.137273 287.469812)scale(0.1 -0.1)">
       <use xlink:href="#ArialUnicodeMS-51"/>
       <use x="55.615234" xlink:href="#ArialUnicodeMS-56"/>
      </g>
     </g>
    </g>
    <g id="text_7">
     <!-- F1 -->
     <defs>
      <path d="M 56.296875 63.09375 
L 17.484375 63.09375 
L 17.484375 40.921875 
L 51.125 40.921875 
L 51.125 32.421875 
L 17.484375 32.421875 
L 17.484375 0 
L 8.015625 0 
L 8.015625 71.578125 
L 56.296875 71.578125 
z
" id="ArialUnicodeMS-70"/>
      <path d="M 37.5 0 
L 28.71875 0 
L 28.71875 56 
Q 22.125 49.75 11.078125 45.40625 
L 11.078125 53.90625 
Q 26.265625 61.1875 31.78125 71.921875 
L 37.5 71.921875 
z
" id="ArialUnicodeMS-49"/>
     </defs>
     <g transform="translate(219.536563 300.619812)scale(0.1 -0.1)">
      <use xlink:href="#ArialUnicodeMS-70"/>
      <use x="61.083984" xlink:href="#ArialUnicodeMS-49"/>
     </g>
    </g>
   </g>
   <g id="matplotlib.axis_2">
    <g id="ytick_1">
     <g id="line2d_13">
      <path clip-path="url(#pe67425b6e5)" d="M 46.810938 246.985412 
L 403.930938 246.985412 
" style="fill:none;stroke:#b0b0b0;stroke-linecap:square;stroke-width:0.8;"/>
     </g>
     <g id="line2d_14">
      <defs>
       <path d="M 0 0 
L -3.5 0 
" id="m882868fab2" style="stroke:#000000;stroke-width:0.8;"/>
      </defs>
      <g>
       <use style="stroke:#000000;stroke-width:0.8;" x="46.810938" xlink:href="#m882868fab2" y="246.985412"/>
      </g>
     </g>
     <g id="text_8">
      <!-- 1.45 -->
      <defs>
       <path d="M 18.890625 0 
L 8.890625 0 
L 8.890625 10.015625 
L 18.890625 10.015625 
z
" id="ArialUnicodeMS-46"/>
       <path d="M 15.828125 43.015625 
Q 22.359375 47.515625 29.390625 47.515625 
Q 38.328125 47.515625 44.96875 41.1875 
Q 51.609375 34.859375 51.609375 24.3125 
Q 51.609375 13.671875 44.875 6.21875 
Q 38.140625 -1.21875 27.203125 -1.21875 
Q 18.265625 -1.21875 11.71875 3.828125 
Q 5.171875 8.890625 4.203125 18.796875 
L 13.375 19.484375 
Q 14.5 12.703125 18.15625 9.34375 
Q 21.828125 6 27.203125 6 
Q 33.890625 6 38.03125 11.046875 
Q 42.1875 16.109375 42.1875 23.484375 
Q 42.1875 31 37.9375 35.34375 
Q 33.6875 39.703125 27 39.703125 
Q 18.5625 39.703125 14.015625 32.8125 
L 5.71875 33.796875 
L 12.703125 70.609375 
L 48.1875 70.609375 
L 48.1875 62.109375 
L 19.671875 62.109375 
z
" id="ArialUnicodeMS-53"/>
      </defs>
      <g transform="translate(20.35 250.564318)scale(0.1 -0.1)">
       <use xlink:href="#ArialUnicodeMS-49"/>
       <use x="55.615234" xlink:href="#ArialUnicodeMS-46"/>
       <use x="83.398438" xlink:href="#ArialUnicodeMS-52"/>
       <use x="139.013672" xlink:href="#ArialUnicodeMS-53"/>
      </g>
     </g>
    </g>
    <g id="ytick_2">
     <g id="line2d_15">
      <path clip-path="url(#pe67425b6e5)" d="M 46.810938 211.408941 
L 403.930938 211.408941 
" style="fill:none;stroke:#b0b0b0;stroke-linecap:square;stroke-width:0.8;"/>
     </g>
     <g id="line2d_16">
      <g>
       <use style="stroke:#000000;stroke-width:0.8;" x="46.810938" xlink:href="#m882868fab2" y="211.408941"/>
      </g>
     </g>
     <g id="text_9">
      <!-- 1.50 -->
      <g transform="translate(20.35 214.987847)scale(0.1 -0.1)">
       <use xlink:href="#ArialUnicodeMS-49"/>
       <use x="55.615234" xlink:href="#ArialUnicodeMS-46"/>
       <use x="83.398438" xlink:href="#ArialUnicodeMS-53"/>
       <use x="139.013672" xlink:href="#ArialUnicodeMS-48"/>
      </g>
     </g>
    </g>
    <g id="ytick_3">
     <g id="line2d_17">
      <path clip-path="url(#pe67425b6e5)" d="M 46.810938 175.832471 
L 403.930938 175.832471 
" style="fill:none;stroke:#b0b0b0;stroke-linecap:square;stroke-width:0.8;"/>
     </g>
     <g id="line2d_18">
      <g>
       <use style="stroke:#000000;stroke-width:0.8;" x="46.810938" xlink:href="#m882868fab2" y="175.832471"/>
      </g>
     </g>
     <g id="text_10">
      <!-- 1.55 -->
      <g transform="translate(20.35 179.411377)scale(0.1 -0.1)">
       <use xlink:href="#ArialUnicodeMS-49"/>
       <use x="55.615234" xlink:href="#ArialUnicodeMS-46"/>
       <use x="83.398438" xlink:href="#ArialUnicodeMS-53"/>
       <use x="139.013672" xlink:href="#ArialUnicodeMS-53"/>
      </g>
     </g>
    </g>
    <g id="ytick_4">
     <g id="line2d_19">
      <path clip-path="url(#pe67425b6e5)" d="M 46.810938 140.256 
L 403.930938 140.256 
" style="fill:none;stroke:#b0b0b0;stroke-linecap:square;stroke-width:0.8;"/>
     </g>
     <g id="line2d_20">
      <g>
       <use style="stroke:#000000;stroke-width:0.8;" x="46.810938" xlink:href="#m882868fab2" y="140.256"/>
      </g>
     </g>
     <g id="text_11">
      <!-- 1.60 -->
      <g transform="translate(20.35 143.834906)scale(0.1 -0.1)">
       <use xlink:href="#ArialUnicodeMS-49"/>
       <use x="55.615234" xlink:href="#ArialUnicodeMS-46"/>
       <use x="83.398438" xlink:href="#ArialUnicodeMS-54"/>
       <use x="139.013672" xlink:href="#ArialUnicodeMS-48"/>
      </g>
     </g>
    </g>
    <g id="ytick_5">
     <g id="line2d_21">
      <path clip-path="url(#pe67425b6e5)" d="M 46.810938 104.679529 
L 403.930938 104.679529 
" style="fill:none;stroke:#b0b0b0;stroke-linecap:square;stroke-width:0.8;"/>
     </g>
     <g id="line2d_22">
      <g>
       <use style="stroke:#000000;stroke-width:0.8;" x="46.810938" xlink:href="#m882868fab2" y="104.679529"/>
      </g>
     </g>
     <g id="text_12">
      <!-- 1.65 -->
      <g transform="translate(20.35 108.258436)scale(0.1 -0.1)">
       <use xlink:href="#ArialUnicodeMS-49"/>
       <use x="55.615234" xlink:href="#ArialUnicodeMS-46"/>
       <use x="83.398438" xlink:href="#ArialUnicodeMS-54"/>
       <use x="139.013672" xlink:href="#ArialUnicodeMS-53"/>
      </g>
     </g>
    </g>
    <g id="ytick_6">
     <g id="line2d_23">
      <path clip-path="url(#pe67425b6e5)" d="M 46.810938 69.103059 
L 403.930938 69.103059 
" style="fill:none;stroke:#b0b0b0;stroke-linecap:square;stroke-width:0.8;"/>
     </g>
     <g id="line2d_24">
      <g>
       <use style="stroke:#000000;stroke-width:0.8;" x="46.810938" xlink:href="#m882868fab2" y="69.103059"/>
      </g>
     </g>
     <g id="text_13">
      <!-- 1.70 -->
      <defs>
       <path d="M 51.125 63.8125 
Q 40.578125 52.25 32.859375 35.203125 
Q 25.140625 18.171875 23.78125 0 
L 14.796875 0 
Q 15.140625 14.59375 22 32.046875 
Q 28.859375 49.515625 39.796875 62.109375 
L 4.78125 62.109375 
L 4.78125 70.609375 
L 51.125 70.609375 
z
" id="ArialUnicodeMS-55"/>
      </defs>
      <g transform="translate(20.35 72.681965)scale(0.1 -0.1)">
       <use xlink:href="#ArialUnicodeMS-49"/>
       <use x="55.615234" xlink:href="#ArialUnicodeMS-46"/>
       <use x="83.398438" xlink:href="#ArialUnicodeMS-55"/>
       <use x="139.013672" xlink:href="#ArialUnicodeMS-48"/>
      </g>
     </g>
    </g>
    <g id="ytick_7">
     <g id="line2d_25">
      <path clip-path="url(#pe67425b6e5)" d="M 46.810938 33.526588 
L 403.930938 33.526588 
" style="fill:none;stroke:#b0b0b0;stroke-linecap:square;stroke-width:0.8;"/>
     </g>
     <g id="line2d_26">
      <g>
       <use style="stroke:#000000;stroke-width:0.8;" x="46.810938" xlink:href="#m882868fab2" y="33.526588"/>
      </g>
     </g>
     <g id="text_14">
      <!-- 1.75 -->
      <g transform="translate(20.35 37.105494)scale(0.1 -0.1)">
       <use xlink:href="#ArialUnicodeMS-49"/>
       <use x="55.615234" xlink:href="#ArialUnicodeMS-46"/>
       <use x="83.398438" xlink:href="#ArialUnicodeMS-55"/>
       <use x="139.013672" xlink:href="#ArialUnicodeMS-53"/>
      </g>
     </g>
    </g>
    <g id="text_15">
     <!-- F2 -->
     <g transform="translate(14.357813 146.090375)rotate(-90)scale(0.1 -0.1)">
      <use xlink:href="#ArialUnicodeMS-70"/>
      <use x="61.083984" xlink:href="#ArialUnicodeMS-50"/>
     </g>
    </g>
   </g>
   <g id="line2d_27">
    <defs>
     <path d="M 0 1.5 
C 0.397805 1.5 0.77937 1.341951 1.06066 1.06066 
C 1.341951 0.77937 1.5 0.397805 1.5 0 
C 1.5 -0.397805 1.341951 -0.77937 1.06066 -1.06066 
C 0.77937 -1.341951 0.397805 -1.5 0 -1.5 
C -0.397805 -1.5 -0.77937 -1.341951 -1.06066 -1.06066 
C -1.341951 -0.77937 -1.5 -0.397805 -1.5 0 
C -1.5 0.397805 -1.341951 0.77937 -1.06066 1.06066 
C -0.77937 1.341951 -0.397805 1.5 0 1.5 
z
" id="m4dbec1eaeb" style="stroke:#4682b4;"/>
    </defs>
    <g clip-path="url(#pe67425b6e5)">
     <use style="fill:#4682b4;stroke:#4682b4;" x="210.613913" xlink:href="#m4dbec1eaeb" y="175.832471"/>
     <use style="fill:#4682b4;stroke:#4682b4;" x="358.184161" xlink:href="#m4dbec1eaeb" y="54.872471"/>
     <use style="fill:#4682b4;stroke:#4682b4;" x="240.127962" xlink:href="#m4dbec1eaeb" y="161.601882"/>
     <use style="fill:#4682b4;stroke:#4682b4;" x="240.127962" xlink:href="#m4dbec1eaeb" y="161.601882"/>
     <use style="fill:#4682b4;stroke:#4682b4;" x="387.69821" xlink:href="#m4dbec1eaeb" y="19.296"/>
     <use style="fill:#4682b4;stroke:#4682b4;" x="269.642012" xlink:href="#m4dbec1eaeb" y="126.025412"/>
     <use style="fill:#4682b4;stroke:#4682b4;" x="240.127962" xlink:href="#m4dbec1eaeb" y="161.601882"/>
     <use style="fill:#4682b4;stroke:#4682b4;" x="181.099863" xlink:href="#m4dbec1eaeb" y="197.178353"/>
     <use style="fill:#4682b4;stroke:#4682b4;" x="181.099863" xlink:href="#m4dbec1eaeb" y="197.178353"/>
     <use style="fill:#4682b4;stroke:#4682b4;" x="151.585814" xlink:href="#m4dbec1eaeb" y="211.408941"/>
     <use style="fill:#4682b4;stroke:#4682b4;" x="210.613913" xlink:href="#m4dbec1eaeb" y="175.832471"/>
     <use style="fill:#4682b4;stroke:#4682b4;" x="63.043665" xlink:href="#m4dbec1eaeb" y="261.216"/>
     <use style="fill:#4682b4;stroke:#4682b4;" x="343.427136" xlink:href="#m4dbec1eaeb" y="54.872471"/>
     <use style="fill:#4682b4;stroke:#4682b4;" x="343.427136" xlink:href="#m4dbec1eaeb" y="54.872471"/>
     <use style="fill:#4682b4;stroke:#4682b4;" x="328.670111" xlink:href="#m4dbec1eaeb" y="90.448941"/>
     <use style="fill:#4682b4;stroke:#4682b4;" x="328.670111" xlink:href="#m4dbec1eaeb" y="90.448941"/>
     <use style="fill:#4682b4;stroke:#4682b4;" x="358.184161" xlink:href="#m4dbec1eaeb" y="54.872471"/>
     <use style="fill:#4682b4;stroke:#4682b4;" x="210.613913" xlink:href="#m4dbec1eaeb" y="175.832471"/>
     <use style="fill:#4682b4;stroke:#4682b4;" x="328.670111" xlink:href="#m4dbec1eaeb" y="90.448941"/>
     <use style="fill:#4682b4;stroke:#4682b4;" x="122.071764" xlink:href="#m4dbec1eaeb" y="232.754824"/>
     <use style="fill:#4682b4;stroke:#4682b4;" x="269.642012" xlink:href="#m4dbec1eaeb" y="126.025412"/>
     <use style="fill:#4682b4;stroke:#4682b4;" x="92.557714" xlink:href="#m4dbec1eaeb" y="246.985412"/>
     <use style="fill:#4682b4;stroke:#4682b4;" x="151.585814" xlink:href="#m4dbec1eaeb" y="211.408941"/>
     <use style="fill:#4682b4;stroke:#4682b4;" x="63.043665" xlink:href="#m4dbec1eaeb" y="261.216"/>
     <use style="fill:#4682b4;stroke:#4682b4;" x="387.69821" xlink:href="#m4dbec1eaeb" y="19.296"/>
     <use style="fill:#4682b4;stroke:#4682b4;" x="122.071764" xlink:href="#m4dbec1eaeb" y="232.754824"/>
     <use style="fill:#4682b4;stroke:#4682b4;" x="299.156061" xlink:href="#m4dbec1eaeb" y="104.679529"/>
     <use style="fill:#4682b4;stroke:#4682b4;" x="299.156061" xlink:href="#m4dbec1eaeb" y="104.679529"/>
     <use style="fill:#4682b4;stroke:#4682b4;" x="92.557714" xlink:href="#m4dbec1eaeb" y="246.985412"/>
     <use style="fill:#4682b4;stroke:#4682b4;" x="299.156061" xlink:href="#m4dbec1eaeb" y="104.679529"/>
    </g>
   </g>
   <g id="patch_3">
    <path d="M 46.810938 273.312 
L 46.810938 7.2 
" style="fill:none;stroke:#000000;stroke-linecap:square;stroke-linejoin:miter;stroke-width:0.8;"/>
   </g>
   <g id="patch_4">
    <path d="M 403.930938 273.312 
L 403.930938 7.2 
" style="fill:none;stroke:#000000;stroke-linecap:square;stroke-linejoin:miter;stroke-width:0.8;"/>
   </g>
   <g id="patch_5">
    <path d="M 46.810938 273.312 
L 403.930938 273.312 
" style="fill:none;stroke:#000000;stroke-linecap:square;stroke-linejoin:miter;stroke-width:0.8;"/>
   </g>
   <g id="patch_6">
    <path d="M 46.810938 7.2 
L 403.930938 7.2 
" style="fill:none;stroke:#000000;stroke-linecap:square;stroke-linejoin:miter;stroke-width:0.8;"/>
   </g>
   <g id="legend_1">
    <g id="patch_7">
     <path d="M 53.810938 29.35 
L 141.3875 29.35 
Q 143.3875 29.35 143.3875 27.35 
L 143.3875 14.2 
Q 143.3875 12.2 141.3875 12.2 
L 53.810938 12.2 
Q 51.810938 12.2 51.810938 14.2 
L 51.810938 27.35 
Q 51.810938 29.35 53.810938 29.35 
z
" style="fill:#ffffff;opacity:0.8;stroke:#cccccc;stroke-linejoin:miter;"/>
    </g>
    <g id="line2d_28"/>
    <g id="line2d_29">
     <g>
      <use style="fill:#4682b4;stroke:#4682b4;" x="65.810937" xlink:href="#m4dbec1eaeb" y="19.857812"/>
     </g>
    </g>
    <g id="text_16">
     <!-- Pareto Front -->
     <defs>
      <path d="M 7.71875 71.578125 
L 34.71875 71.578125 
Q 41.109375 71.578125 45.71875 70.9375 
Q 50.34375 70.3125 54.296875 67.640625 
Q 58.25 64.984375 60.28125 60.421875 
Q 62.3125 55.859375 62.3125 50.875 
Q 62.3125 40.96875 55.9375 34.984375 
Q 49.5625 29 35.5 29 
L 17.1875 29 
L 17.1875 0 
L 7.71875 0 
z
M 17.1875 37.5 
L 35.59375 37.5 
Q 52.484375 37.5 52.484375 50.59375 
Q 52.484375 54.890625 50.28125 58.171875 
Q 48.09375 61.46875 44.890625 62.28125 
Q 41.703125 63.09375 35.40625 63.09375 
L 17.1875 63.09375 
z
" id="ArialUnicodeMS-80"/>
      <path d="M 51.609375 0 
L 42.390625 0 
Q 41.109375 2.4375 40.578125 6.390625 
Q 31.734375 -1.21875 21.484375 -1.21875 
Q 13.28125 -1.21875 8.546875 2.875 
Q 3.8125 6.984375 3.8125 13.71875 
Q 3.8125 20.171875 8.375 24.34375 
Q 12.9375 28.515625 24.21875 29.890625 
L 32.421875 31.109375 
Q 37.015625 31.84375 39.984375 32.90625 
Q 39.984375 36.859375 39.734375 38.5 
Q 39.5 40.140625 38.296875 41.890625 
Q 37.109375 43.65625 34.46875 44.71875 
Q 31.84375 45.796875 27.390625 45.796875 
Q 21.734375 45.796875 18.4375 43.703125 
Q 15.140625 41.609375 13.921875 35.890625 
L 5.328125 37.015625 
Q 6.734375 44.96875 12.59375 48.96875 
Q 18.453125 52.984375 28.71875 52.984375 
Q 38.03125 52.984375 42.40625 50.21875 
Q 46.78125 47.46875 47.78125 43.5625 
Q 48.78125 39.65625 48.78125 33.5 
L 48.78125 21.6875 
Q 48.78125 10.890625 49.1875 7.203125 
Q 49.609375 3.515625 51.609375 0 
z
M 39.984375 22.796875 
L 39.984375 25.984375 
Q 33.109375 23.6875 23.140625 22.34375 
Q 13.1875 21 13.1875 13.921875 
Q 13.1875 10.359375 15.875 8.03125 
Q 18.5625 5.71875 23.578125 5.71875 
Q 30.078125 5.71875 35.03125 9.59375 
Q 39.984375 13.484375 39.984375 22.796875 
z
" id="ArialUnicodeMS-97"/>
      <path d="M 34.625 50.203125 
L 31.59375 42.09375 
Q 28.328125 44 25.203125 44 
Q 20.265625 44 17.71875 39.578125 
Q 15.1875 35.15625 15.1875 27.203125 
L 15.1875 0 
L 6.390625 0 
L 6.390625 51.8125 
L 14.40625 51.8125 
L 14.40625 44 
L 14.59375 44 
Q 18.796875 52.984375 25.59375 52.984375 
Q 30.078125 52.984375 34.625 50.203125 
z
" id="ArialUnicodeMS-114"/>
      <path d="M 51.703125 23.6875 
L 12.890625 23.6875 
Q 13.421875 15.09375 17.796875 10.546875 
Q 22.171875 6 28.71875 6 
Q 33.734375 6 37.15625 8.65625 
Q 40.578125 11.328125 42.390625 16.703125 
L 51.421875 15.578125 
Q 49.21875 7.46875 43.359375 3.125 
Q 37.5 -1.21875 28.71875 -1.21875 
Q 17.046875 -1.21875 10.46875 5.9375 
Q 3.90625 13.09375 3.90625 25.484375 
Q 3.90625 37.75 10.28125 45.359375 
Q 16.65625 52.984375 28.21875 52.984375 
Q 33.890625 52.984375 39.140625 50.484375 
Q 44.390625 48 48.046875 42.015625 
Q 51.703125 36.03125 51.703125 23.6875 
z
M 42.671875 30.90625 
Q 42.140625 38.8125 37.765625 42.296875 
Q 33.40625 45.796875 28.21875 45.796875 
Q 22.015625 45.796875 18.015625 41.640625 
Q 14.015625 37.5 13.375 30.90625 
z
" id="ArialUnicodeMS-101"/>
      <path d="M 26.90625 0.09375 
Q 23 -0.6875 20.3125 -0.6875 
Q 14.546875 -0.6875 11.90625 1.34375 
Q 9.28125 3.375 8.6875 6.5 
Q 8.109375 9.625 8.109375 15.1875 
L 8.109375 45.015625 
L 1.703125 45.015625 
L 1.703125 51.8125 
L 8.109375 51.8125 
L 8.109375 64.703125 
L 16.890625 70.015625 
L 16.890625 51.8125 
L 25.6875 51.8125 
L 25.6875 45.015625 
L 16.890625 45.015625 
L 16.890625 14.703125 
Q 16.890625 10.796875 17.6875 9.15625 
Q 18.5 7.515625 21.78125 7.515625 
Q 23.6875 7.515625 25.6875 7.90625 
z
" id="ArialUnicodeMS-116"/>
      <path d="M 27.78125 52.984375 
Q 38.28125 52.984375 45.1875 46.140625 
Q 52.09375 39.3125 52.09375 26.703125 
Q 52.09375 11.421875 44.625 5.09375 
Q 37.15625 -1.21875 27.78125 -1.21875 
Q 17.96875 -1.21875 10.734375 5.265625 
Q 3.515625 11.765625 3.515625 25.875 
Q 3.515625 39.546875 10.5 46.265625 
Q 17.484375 52.984375 27.78125 52.984375 
z
M 27.78125 6 
Q 35.296875 6 39.203125 11.5625 
Q 43.109375 17.140625 43.109375 26.21875 
Q 43.109375 35.9375 38.6875 40.859375 
Q 34.28125 45.796875 27.78125 45.796875 
Q 21.09375 45.796875 16.796875 40.796875 
Q 12.5 35.796875 12.5 25.875 
Q 12.5 16.015625 16.859375 11 
Q 21.234375 6 27.78125 6 
z
" id="ArialUnicodeMS-111"/>
      <path id="ArialUnicodeMS-32"/>
      <path d="M 49.03125 0 
L 40.1875 0 
L 40.1875 31.5 
Q 40.1875 39.453125 37.328125 42.421875 
Q 34.46875 45.40625 29.390625 45.40625 
Q 25.484375 45.40625 21.984375 43.5 
Q 18.5 41.609375 17.03125 38.140625 
Q 15.578125 34.671875 15.578125 28.328125 
L 15.578125 0 
L 6.78125 0 
L 6.78125 51.8125 
L 14.703125 51.8125 
L 14.703125 44.484375 
L 14.890625 44.484375 
Q 17.671875 48.734375 21.75 50.859375 
Q 25.828125 52.984375 31.203125 52.984375 
Q 35.296875 52.984375 39.296875 51.515625 
Q 43.3125 50.046875 45.578125 47.109375 
Q 47.859375 44.1875 48.4375 40.859375 
Q 49.03125 37.546875 49.03125 31.890625 
z
" id="ArialUnicodeMS-110"/>
     </defs>
     <g transform="translate(83.810937 23.357812)scale(0.1 -0.1)">
      <use xlink:href="#ArialUnicodeMS-80"/>
      <use x="66.699219" xlink:href="#ArialUnicodeMS-97"/>
      <use x="122.314453" xlink:href="#ArialUnicodeMS-114"/>
      <use x="155.615234" xlink:href="#ArialUnicodeMS-101"/>
      <use x="211.230469" xlink:href="#ArialUnicodeMS-116"/>
      <use x="239.013672" xlink:href="#ArialUnicodeMS-111"/>
      <use x="294.628906" xlink:href="#ArialUnicodeMS-32"/>
      <use x="322.412109" xlink:href="#ArialUnicodeMS-70"/>
      <use x="383.496094" xlink:href="#ArialUnicodeMS-114"/>
      <use x="416.796875" xlink:href="#ArialUnicodeMS-111"/>
      <use x="472.412109" xlink:href="#ArialUnicodeMS-110"/>
      <use x="528.027344" xlink:href="#ArialUnicodeMS-116"/>
     </g>
    </g>
   </g>
  </g>
 </g>
 <defs>
  <clipPath id="pe67425b6e5">
   <rect height="266.112" width="357.12" x="46.810938" y="7.2"/>
  </clipPath>
 </defs>
</svg>
