<?xml version="1.0" encoding="utf-8" standalone="no"?>
<!DOCTYPE svg PUBLIC "-//W3C//DTD SVG 1.1//EN"
  "http://www.w3.org/Graphics/SVG/1.1/DTD/svg11.dtd">
<!-- Created with matplotlib (https://matplotlib.org/) -->
<svg height="312.031625pt" version="1.1" viewBox="0 0 409.952358 312.031625" width="409.952358pt" xmlns="http://www.w3.org/2000/svg" xmlns:xlink="http://www.w3.org/1999/xlink">
 <defs>
  <style type="text/css">
*{stroke-linecap:butt;stroke-linejoin:round;}
  </style>
 </defs>
 <g id="figure_1">
  <g id="patch_1">
   <path d="M 0 312.031625 
L 409.952358 312.031625 
L 409.952358 0 
L 0 0 
z
" style="fill:#ffffff;"/>
  </g>
  <g id="axes_1">
   <g id="patch_2">
    <path d="M 42.529688 275.531625 
L 399.649688 275.531625 
L 399.649688 9.419625 
L 42.529688 9.419625 
z
" style="fill:#ffffff;"/>
   </g>
   <g id="matplotlib.axis_1">
    <g id="xtick_1">
     <g id="line2d_1">
      <path clip-path="url(#pa1c48e2587)" d="M 72.303167 275.531625 
L 72.303167 9.419625 
" style="fill:none;stroke:#b0b0b0;stroke-linecap:square;stroke-width:0.8;"/>
     </g>
     <g id="line2d_2">
      <defs>
       <path d="M 0 0 
L 0 3.5 
" id="m9ac449c13b" style="stroke:#000000;stroke-width:0.8;"/>
      </defs>
      <g>
       <use style="stroke:#000000;stroke-width:0.8;" x="72.303167" xlink:href="#m9ac449c13b" y="275.531625"/>
      </g>
     </g>
     <g id="text_1">
      <!-- 0.2 -->
      <defs>
       <path d="M 27.78125 71.921875 
Q 51.125 71.921875 51.125 35.296875 
Q 51.125 16.796875 45.09375 7.78125 
Q 39.0625 -1.21875 27.78125 -1.21875 
Q 4.5 -1.21875 4.5 35.296875 
Q 4.5 53.8125 10.515625 62.859375 
Q 16.546875 71.921875 27.78125 71.921875 
z
M 27.78125 6 
Q 34.859375 6 38.46875 12.859375 
Q 42.09375 19.734375 42.09375 35.296875 
Q 42.09375 46.140625 40.5 52.359375 
Q 38.921875 58.59375 35.71875 61.640625 
Q 32.515625 64.703125 27.6875 64.703125 
Q 20.609375 64.703125 17.046875 57.71875 
Q 13.484375 50.734375 13.484375 35.296875 
Q 13.484375 24.609375 15.09375 18.359375 
Q 16.703125 12.109375 19.875 9.046875 
Q 23.046875 6 27.78125 6 
z
" id="ArialUnicodeMS-48"/>
       <path d="M 18.890625 0 
L 8.890625 0 
L 8.890625 10.015625 
L 18.890625 10.015625 
z
" id="ArialUnicodeMS-46"/>
       <path d="M 50.484375 0 
L 3.078125 0 
Q 3.078125 6.0625 7.296875 12.25 
Q 11.53125 18.453125 23.09375 27.78125 
Q 30.171875 33.453125 35.734375 39.671875 
Q 41.3125 45.90625 41.3125 52.203125 
Q 41.3125 57.625 37.46875 61.15625 
Q 33.640625 64.703125 27.78125 64.703125 
Q 21.875 64.703125 17.875 61.0625 
Q 13.875 57.421875 13.8125 50.203125 
L 4.78125 51.21875 
Q 5.609375 61.28125 11.9375 66.59375 
Q 18.265625 71.921875 27.984375 71.921875 
Q 38.53125 71.921875 44.40625 66.078125 
Q 50.296875 60.25 50.296875 52 
Q 50.296875 45.125 45.328125 38.0625 
Q 40.375 31 25.59375 19.1875 
Q 17.828125 12.984375 15.28125 8.5 
L 50.484375 8.5 
z
" id="ArialUnicodeMS-50"/>
      </defs>
      <g transform="translate(65.353167 289.689437)scale(0.1 -0.1)">
       <use xlink:href="#ArialUnicodeMS-48"/>
       <use x="55.615234" xlink:href="#ArialUnicodeMS-46"/>
       <use x="83.398438" xlink:href="#ArialUnicodeMS-50"/>
      </g>
     </g>
    </g>
    <g id="xtick_2">
     <g id="line2d_3">
      <path clip-path="url(#pa1c48e2587)" d="M 118.517337 275.531625 
L 118.517337 9.419625 
" style="fill:none;stroke:#b0b0b0;stroke-linecap:square;stroke-width:0.8;"/>
     </g>
     <g id="line2d_4">
      <g>
       <use style="stroke:#000000;stroke-width:0.8;" x="118.517337" xlink:href="#m9ac449c13b" y="275.531625"/>
      </g>
     </g>
     <g id="text_2">
      <!-- 0.3 -->
      <defs>
       <path d="M 37.890625 38.71875 
Q 44.53125 37.453125 47.921875 32.296875 
Q 51.3125 27.15625 51.3125 21.09375 
Q 51.3125 11.328125 44.203125 5.046875 
Q 37.109375 -1.21875 27.203125 -1.21875 
Q 17.71875 -1.21875 11.5625 4.296875 
Q 5.421875 9.8125 4.390625 18.890625 
L 13.1875 20.125 
Q 14.5 13.03125 17.984375 9.515625 
Q 21.484375 6 27.203125 6 
Q 33.34375 6 37.609375 10.328125 
Q 41.890625 14.65625 41.890625 20.90625 
Q 41.890625 26.90625 38 30.859375 
Q 34.125 34.8125 27.875 34.8125 
Q 25.34375 34.8125 21.6875 33.890625 
L 22.703125 41.609375 
Q 26.21875 41.609375 28.265625 41.9375 
Q 30.328125 42.28125 32.859375 43.59375 
Q 35.40625 44.921875 37.0625 47.390625 
Q 38.71875 49.859375 38.71875 53.515625 
Q 38.71875 58.84375 35.171875 61.765625 
Q 31.640625 64.703125 27 64.703125 
Q 21.6875 64.703125 18.328125 61.328125 
Q 14.984375 57.953125 14.109375 51.703125 
L 5.328125 53.328125 
Q 7.03125 62.640625 12.859375 67.28125 
Q 18.703125 71.921875 26.8125 71.921875 
Q 35.75 71.921875 41.71875 66.53125 
Q 47.703125 61.140625 47.703125 53.328125 
Q 47.703125 43.3125 37.890625 38.921875 
z
" id="ArialUnicodeMS-51"/>
      </defs>
      <g transform="translate(111.567337 289.689437)scale(0.1 -0.1)">
       <use xlink:href="#ArialUnicodeMS-48"/>
       <use x="55.615234" xlink:href="#ArialUnicodeMS-46"/>
       <use x="83.398438" xlink:href="#ArialUnicodeMS-51"/>
      </g>
     </g>
    </g>
    <g id="xtick_3">
     <g id="line2d_5">
      <path clip-path="url(#pa1c48e2587)" d="M 164.731507 275.531625 
L 164.731507 9.419625 
" style="fill:none;stroke:#b0b0b0;stroke-linecap:square;stroke-width:0.8;"/>
     </g>
     <g id="line2d_6">
      <g>
       <use style="stroke:#000000;stroke-width:0.8;" x="164.731507" xlink:href="#m9ac449c13b" y="275.531625"/>
      </g>
     </g>
     <g id="text_3">
      <!-- 0.4 -->
      <defs>
       <path d="M 50.984375 17.09375 
L 41.3125 17.09375 
L 41.3125 0 
L 32.515625 0 
L 32.515625 17.09375 
L 1.515625 17.09375 
L 1.515625 25.203125 
L 34.078125 71.578125 
L 41.3125 71.578125 
L 41.3125 25.203125 
L 50.984375 25.203125 
z
M 32.515625 25.203125 
L 32.515625 57.515625 
L 32.328125 57.515625 
L 10.109375 25.203125 
z
" id="ArialUnicodeMS-52"/>
      </defs>
      <g transform="translate(157.781507 289.689437)scale(0.1 -0.1)">
       <use xlink:href="#ArialUnicodeMS-48"/>
       <use x="55.615234" xlink:href="#ArialUnicodeMS-46"/>
       <use x="83.398438" xlink:href="#ArialUnicodeMS-52"/>
      </g>
     </g>
    </g>
    <g id="xtick_4">
     <g id="line2d_7">
      <path clip-path="url(#pa1c48e2587)" d="M 210.945677 275.531625 
L 210.945677 9.419625 
" style="fill:none;stroke:#b0b0b0;stroke-linecap:square;stroke-width:0.8;"/>
     </g>
     <g id="line2d_8">
      <g>
       <use style="stroke:#000000;stroke-width:0.8;" x="210.945677" xlink:href="#m9ac449c13b" y="275.531625"/>
      </g>
     </g>
     <g id="text_4">
      <!-- 0.5 -->
      <defs>
       <path d="M 15.828125 43.015625 
Q 22.359375 47.515625 29.390625 47.515625 
Q 38.328125 47.515625 44.96875 41.1875 
Q 51.609375 34.859375 51.609375 24.3125 
Q 51.609375 13.671875 44.875 6.21875 
Q 38.140625 -1.21875 27.203125 -1.21875 
Q 18.265625 -1.21875 11.71875 3.828125 
Q 5.171875 8.890625 4.203125 18.796875 
L 13.375 19.484375 
Q 14.5 12.703125 18.15625 9.34375 
Q 21.828125 6 27.203125 6 
Q 33.890625 6 38.03125 11.046875 
Q 42.1875 16.109375 42.1875 23.484375 
Q 42.1875 31 37.9375 35.34375 
Q 33.6875 39.703125 27 39.703125 
Q 18.5625 39.703125 14.015625 32.8125 
L 5.71875 33.796875 
L 12.703125 70.609375 
L 48.1875 70.609375 
L 48.1875 62.109375 
L 19.671875 62.109375 
z
" id="ArialUnicodeMS-53"/>
      </defs>
      <g transform="translate(203.995677 289.689437)scale(0.1 -0.1)">
       <use xlink:href="#ArialUnicodeMS-48"/>
       <use x="55.615234" xlink:href="#ArialUnicodeMS-46"/>
       <use x="83.398438" xlink:href="#ArialUnicodeMS-53"/>
      </g>
     </g>
    </g>
    <g id="xtick_5">
     <g id="line2d_9">
      <path clip-path="url(#pa1c48e2587)" d="M 257.159847 275.531625 
L 257.159847 9.419625 
" style="fill:none;stroke:#b0b0b0;stroke-linecap:square;stroke-width:0.8;"/>
     </g>
     <g id="line2d_10">
      <g>
       <use style="stroke:#000000;stroke-width:0.8;" x="257.159847" xlink:href="#m9ac449c13b" y="275.531625"/>
      </g>
     </g>
     <g id="text_5">
      <!-- 0.6 -->
      <defs>
       <path d="M 13.09375 36.921875 
Q 19.140625 46.390625 30.328125 46.390625 
Q 39.109375 46.390625 45.265625 39.890625 
Q 51.421875 33.40625 51.421875 23.296875 
Q 51.421875 13.09375 45.28125 5.9375 
Q 39.15625 -1.21875 29 -1.21875 
Q 18.703125 -1.21875 11.453125 6.390625 
Q 4.203125 14.015625 4.203125 33.5 
Q 4.203125 52.640625 10.765625 62.28125 
Q 17.328125 71.921875 29.78125 71.921875 
Q 37.84375 71.921875 43.40625 67.421875 
Q 48.96875 62.9375 50.203125 54.109375 
L 41.40625 53.328125 
Q 39.015625 64.703125 29.296875 64.703125 
Q 22.5625 64.703125 17.71875 58 
Q 12.890625 51.3125 12.890625 36.921875 
z
M 28.8125 6 
Q 34.859375 6 38.625 10.875 
Q 42.390625 15.765625 42.390625 22.703125 
Q 42.390625 29.640625 38.625 34.171875 
Q 34.859375 38.71875 28.515625 38.71875 
Q 22.703125 38.71875 18.5 34.4375 
Q 14.3125 30.171875 14.3125 23.1875 
Q 14.3125 16.0625 18.4375 11.03125 
Q 22.5625 6 28.8125 6 
z
" id="ArialUnicodeMS-54"/>
      </defs>
      <g transform="translate(250.209847 289.689437)scale(0.1 -0.1)">
       <use xlink:href="#ArialUnicodeMS-48"/>
       <use x="55.615234" xlink:href="#ArialUnicodeMS-46"/>
       <use x="83.398438" xlink:href="#ArialUnicodeMS-54"/>
      </g>
     </g>
    </g>
    <g id="xtick_6">
     <g id="line2d_11">
      <path clip-path="url(#pa1c48e2587)" d="M 303.374017 275.531625 
L 303.374017 9.419625 
" style="fill:none;stroke:#b0b0b0;stroke-linecap:square;stroke-width:0.8;"/>
     </g>
     <g id="line2d_12">
      <g>
       <use style="stroke:#000000;stroke-width:0.8;" x="303.374017" xlink:href="#m9ac449c13b" y="275.531625"/>
      </g>
     </g>
     <g id="text_6">
      <!-- 0.7 -->
      <defs>
       <path d="M 51.125 63.8125 
Q 40.578125 52.25 32.859375 35.203125 
Q 25.140625 18.171875 23.78125 0 
L 14.796875 0 
Q 15.140625 14.59375 22 32.046875 
Q 28.859375 49.515625 39.796875 62.109375 
L 4.78125 62.109375 
L 4.78125 70.609375 
L 51.125 70.609375 
z
" id="ArialUnicodeMS-55"/>
      </defs>
      <g transform="translate(296.424017 289.689437)scale(0.1 -0.1)">
       <use xlink:href="#ArialUnicodeMS-48"/>
       <use x="55.615234" xlink:href="#ArialUnicodeMS-46"/>
       <use x="83.398438" xlink:href="#ArialUnicodeMS-55"/>
      </g>
     </g>
    </g>
    <g id="xtick_7">
     <g id="line2d_13">
      <path clip-path="url(#pa1c48e2587)" d="M 349.588188 275.531625 
L 349.588188 9.419625 
" style="fill:none;stroke:#b0b0b0;stroke-linecap:square;stroke-width:0.8;"/>
     </g>
     <g id="line2d_14">
      <g>
       <use style="stroke:#000000;stroke-width:0.8;" x="349.588188" xlink:href="#m9ac449c13b" y="275.531625"/>
      </g>
     </g>
     <g id="text_7">
      <!-- 0.8 -->
      <defs>
       <path d="M 37.890625 38.71875 
Q 51.3125 34.421875 51.3125 20.40625 
Q 51.3125 11.1875 44.71875 4.984375 
Q 38.140625 -1.21875 27.78125 -1.21875 
Q 17.328125 -1.21875 10.765625 5.03125 
Q 4.203125 11.28125 4.203125 20.703125 
Q 4.203125 27.484375 7.890625 32.5625 
Q 11.578125 37.640625 17.828125 38.71875 
L 17.828125 38.921875 
Q 7.078125 42.234375 7.078125 53.421875 
Q 7.078125 61.328125 12.734375 66.625 
Q 18.40625 71.921875 27.59375 71.921875 
Q 36.921875 71.921875 42.65625 66.453125 
Q 48.390625 60.984375 48.390625 53.21875 
Q 48.390625 42.671875 37.890625 38.921875 
z
M 27.78125 42.1875 
Q 32.71875 42.1875 36.0625 45.328125 
Q 39.40625 48.484375 39.40625 53.21875 
Q 39.40625 58.0625 36.015625 61.375 
Q 32.625 64.703125 27.6875 64.703125 
Q 22.65625 64.703125 19.375 61.421875 
Q 16.109375 58.15625 16.109375 53.71875 
Q 16.109375 48.390625 19.484375 45.28125 
Q 22.859375 42.1875 27.78125 42.1875 
z
M 27.78125 6 
Q 33.984375 6 38.125 10 
Q 42.28125 14.015625 42.28125 20.40625 
Q 42.28125 26.8125 38 30.90625 
Q 33.734375 35.015625 27.59375 35.015625 
Q 21.1875 35.015625 17.1875 30.78125 
Q 13.1875 26.5625 13.1875 20.609375 
Q 13.1875 14.40625 17.3125 10.203125 
Q 21.4375 6 27.78125 6 
z
" id="ArialUnicodeMS-56"/>
      </defs>
      <g transform="translate(342.638188 289.689437)scale(0.1 -0.1)">
       <use xlink:href="#ArialUnicodeMS-48"/>
       <use x="55.615234" xlink:href="#ArialUnicodeMS-46"/>
       <use x="83.398438" xlink:href="#ArialUnicodeMS-56"/>
      </g>
     </g>
    </g>
    <g id="xtick_8">
     <g id="line2d_15">
      <path clip-path="url(#pa1c48e2587)" d="M 395.802358 275.531625 
L 395.802358 9.419625 
" style="fill:none;stroke:#b0b0b0;stroke-linecap:square;stroke-width:0.8;"/>
     </g>
     <g id="line2d_16">
      <g>
       <use style="stroke:#000000;stroke-width:0.8;" x="395.802358" xlink:href="#m9ac449c13b" y="275.531625"/>
      </g>
     </g>
     <g id="text_8">
      <!-- 0.9 -->
      <defs>
       <path d="M 42.390625 33.6875 
Q 39.796875 29.5 35.28125 26.90625 
Q 30.765625 24.3125 25.484375 24.3125 
Q 16.65625 24.3125 10.46875 30.78125 
Q 4.296875 37.25 4.296875 47.703125 
Q 4.296875 58.34375 10.59375 65.125 
Q 16.890625 71.921875 26.8125 71.921875 
Q 36.765625 71.921875 44.03125 64.15625 
Q 51.3125 56.390625 51.3125 37.3125 
Q 51.3125 17.921875 44.671875 8.34375 
Q 38.03125 -1.21875 25.6875 -1.21875 
Q 17.625 -1.21875 12.203125 3.203125 
Q 6.78125 7.625 5.609375 16.609375 
L 14.015625 17.28125 
Q 16.015625 6 25.875 6 
Q 33.984375 6 38.28125 13.390625 
Q 42.578125 20.796875 42.578125 33.6875 
z
M 27.59375 31.984375 
Q 34.03125 31.984375 37.8125 36.546875 
Q 41.609375 41.109375 41.609375 48.09375 
Q 41.609375 55.171875 37.71875 59.9375 
Q 33.84375 64.703125 27.78125 64.703125 
Q 21.6875 64.703125 17.484375 59.640625 
Q 13.28125 54.59375 13.28125 47.40625 
Q 13.28125 40.625 17.40625 36.296875 
Q 21.53125 31.984375 27.59375 31.984375 
z
" id="ArialUnicodeMS-57"/>
      </defs>
      <g transform="translate(388.852358 289.689437)scale(0.1 -0.1)">
       <use xlink:href="#ArialUnicodeMS-48"/>
       <use x="55.615234" xlink:href="#ArialUnicodeMS-46"/>
       <use x="83.398438" xlink:href="#ArialUnicodeMS-57"/>
      </g>
     </g>
    </g>
    <g id="text_9">
     <!-- x坐标 -->
     <defs>
      <path d="M 49.3125 0 
L 38.484375 0 
L 25 20.515625 
L 11.375 0 
L 0.6875 0 
L 19.671875 27 
L 2.203125 51.8125 
L 13.09375 51.8125 
Q 23.734375 35.75 24.703125 33.890625 
L 37.40625 51.8125 
L 47.90625 51.8125 
L 29.984375 27.484375 
z
" id="ArialUnicodeMS-120"/>
      <path d="M 92.671875 -2.875 
L 7.421875 -2.875 
L 7.421875 4.390625 
L 46.09375 4.390625 
L 46.09375 20.015625 
L 15.71875 20.015625 
L 15.71875 27.296875 
L 46 27.296875 
L 46 80.609375 
L 53.609375 80.609375 
L 53.609375 27.296875 
L 83.984375 27.296875 
L 83.984375 20.015625 
L 53.609375 20.015625 
L 53.609375 4.390625 
L 92.671875 4.390625 
z
M 91.015625 35.6875 
L 84.421875 31.6875 
Q 81 41.453125 72.796875 48.875 
Q 67.1875 36.375 60.890625 30.71875 
L 54.296875 35.59375 
Q 63.140625 44.28125 66.015625 52.90625 
Q 68.890625 61.53125 68.890625 75.203125 
L 76.90625 73.78125 
Q 76.90625 65.96875 74.703125 56.203125 
Q 84.578125 50.09375 91.015625 35.6875 
z
M 45.609375 37.5 
L 39.40625 32.328125 
Q 35.25 43.109375 27.203125 49.21875 
Q 23.34375 38.375 13.484375 30.171875 
L 7.328125 35.6875 
Q 16.84375 43.890625 20.53125 52.578125 
Q 24.21875 61.28125 24.21875 74.609375 
L 31.6875 73.390625 
Q 32.125 67.28125 29.5 56.390625 
Q 39.109375 50.203125 45.609375 37.5 
z
" id="ArialUnicodeMS-22352"/>
      <path d="M 40.578125 33.890625 
L 33.984375 30.171875 
Q 31.34375 36.421875 26.609375 43.3125 
L 26.421875 43.3125 
L 26.421875 -5.515625 
L 18.796875 -5.515625 
L 18.796875 35.203125 
L 18.609375 35.203125 
Q 15.96875 25.921875 7.71875 17.28125 
L 2.09375 22.703125 
Q 15.09375 35.84375 18.3125 57.078125 
L 5.8125 57.078125 
L 5.8125 64.40625 
L 18.796875 64.40625 
L 18.796875 83.296875 
L 26.421875 83.296875 
L 26.421875 64.40625 
L 37.796875 64.40625 
L 37.796875 57.078125 
L 26.421875 57.078125 
L 26.421875 48.296875 
L 29.296875 50.09375 
Q 36.46875 42.578125 40.578125 33.890625 
z
M 87.015625 68.5 
L 41.703125 68.5 
L 41.703125 75.390625 
L 87.015625 75.390625 
z
M 91.609375 45.796875 
L 68.015625 45.796875 
L 68.015625 6.59375 
Q 68.015625 1.21875 67.1875 -1 
Q 66.359375 -3.21875 64.84375 -4.078125 
Q 63.328125 -4.9375 53.078125 -5.90625 
L 50.296875 1.8125 
L 58.6875 1.421875 
Q 60.40625 1.421875 60.40625 4.390625 
L 60.40625 45.796875 
L 37.3125 45.796875 
L 37.3125 52.6875 
L 91.609375 52.6875 
z
M 94 11.375 
L 86.8125 7.515625 
Q 81.984375 22.46875 70.796875 36.078125 
L 76.703125 39.796875 
Q 88.71875 25.09375 94 11.375 
z
M 54.59375 36.1875 
Q 47.3125 18.453125 34.71875 7.171875 
L 28.515625 12.203125 
Q 42.09375 24.125 48.390625 39.5 
z
" id="ArialUnicodeMS-26631"/>
     </defs>
     <g transform="translate(208.589687 302.839437)scale(0.1 -0.1)">
      <use xlink:href="#ArialUnicodeMS-120"/>
      <use x="50" xlink:href="#ArialUnicodeMS-22352"/>
      <use x="150" xlink:href="#ArialUnicodeMS-26631"/>
     </g>
    </g>
   </g>
   <g id="matplotlib.axis_2">
    <g id="ytick_1">
     <g id="line2d_17">
      <path clip-path="url(#pa1c48e2587)" d="M 42.529688 247.096669 
L 399.649688 247.096669 
" style="fill:none;stroke:#b0b0b0;stroke-linecap:square;stroke-width:0.8;"/>
     </g>
     <g id="line2d_18">
      <defs>
       <path d="M 0 0 
L -3.5 0 
" id="m967637676a" style="stroke:#000000;stroke-width:0.8;"/>
      </defs>
      <g>
       <use style="stroke:#000000;stroke-width:0.8;" x="42.529688" xlink:href="#m967637676a" y="247.096669"/>
      </g>
     </g>
     <g id="text_10">
      <!-- 0.2 -->
      <g transform="translate(21.629688 250.675575)scale(0.1 -0.1)">
       <use xlink:href="#ArialUnicodeMS-48"/>
       <use x="55.615234" xlink:href="#ArialUnicodeMS-46"/>
       <use x="83.398438" xlink:href="#ArialUnicodeMS-50"/>
      </g>
     </g>
    </g>
    <g id="ytick_2">
     <g id="line2d_19">
      <path clip-path="url(#pa1c48e2587)" d="M 42.529688 216.670307 
L 399.649688 216.670307 
" style="fill:none;stroke:#b0b0b0;stroke-linecap:square;stroke-width:0.8;"/>
     </g>
     <g id="line2d_20">
      <g>
       <use style="stroke:#000000;stroke-width:0.8;" x="42.529688" xlink:href="#m967637676a" y="216.670307"/>
      </g>
     </g>
     <g id="text_11">
      <!-- 0.3 -->
      <g transform="translate(21.629688 220.249214)scale(0.1 -0.1)">
       <use xlink:href="#ArialUnicodeMS-48"/>
       <use x="55.615234" xlink:href="#ArialUnicodeMS-46"/>
       <use x="83.398438" xlink:href="#ArialUnicodeMS-51"/>
      </g>
     </g>
    </g>
    <g id="ytick_3">
     <g id="line2d_21">
      <path clip-path="url(#pa1c48e2587)" d="M 42.529688 186.243946 
L 399.649688 186.243946 
" style="fill:none;stroke:#b0b0b0;stroke-linecap:square;stroke-width:0.8;"/>
     </g>
     <g id="line2d_22">
      <g>
       <use style="stroke:#000000;stroke-width:0.8;" x="42.529688" xlink:href="#m967637676a" y="186.243946"/>
      </g>
     </g>
     <g id="text_12">
      <!-- 0.4 -->
      <g transform="translate(21.629688 189.822852)scale(0.1 -0.1)">
       <use xlink:href="#ArialUnicodeMS-48"/>
       <use x="55.615234" xlink:href="#ArialUnicodeMS-46"/>
       <use x="83.398438" xlink:href="#ArialUnicodeMS-52"/>
      </g>
     </g>
    </g>
    <g id="ytick_4">
     <g id="line2d_23">
      <path clip-path="url(#pa1c48e2587)" d="M 42.529688 155.817585 
L 399.649688 155.817585 
" style="fill:none;stroke:#b0b0b0;stroke-linecap:square;stroke-width:0.8;"/>
     </g>
     <g id="line2d_24">
      <g>
       <use style="stroke:#000000;stroke-width:0.8;" x="42.529688" xlink:href="#m967637676a" y="155.817585"/>
      </g>
     </g>
     <g id="text_13">
      <!-- 0.5 -->
      <g transform="translate(21.629688 159.396491)scale(0.1 -0.1)">
       <use xlink:href="#ArialUnicodeMS-48"/>
       <use x="55.615234" xlink:href="#ArialUnicodeMS-46"/>
       <use x="83.398438" xlink:href="#ArialUnicodeMS-53"/>
      </g>
     </g>
    </g>
    <g id="ytick_5">
     <g id="line2d_25">
      <path clip-path="url(#pa1c48e2587)" d="M 42.529688 125.391223 
L 399.649688 125.391223 
" style="fill:none;stroke:#b0b0b0;stroke-linecap:square;stroke-width:0.8;"/>
     </g>
     <g id="line2d_26">
      <g>
       <use style="stroke:#000000;stroke-width:0.8;" x="42.529688" xlink:href="#m967637676a" y="125.391223"/>
      </g>
     </g>
     <g id="text_14">
      <!-- 0.6 -->
      <g transform="translate(21.629688 128.970129)scale(0.1 -0.1)">
       <use xlink:href="#ArialUnicodeMS-48"/>
       <use x="55.615234" xlink:href="#ArialUnicodeMS-46"/>
       <use x="83.398438" xlink:href="#ArialUnicodeMS-54"/>
      </g>
     </g>
    </g>
    <g id="ytick_6">
     <g id="line2d_27">
      <path clip-path="url(#pa1c48e2587)" d="M 42.529688 94.964862 
L 399.649688 94.964862 
" style="fill:none;stroke:#b0b0b0;stroke-linecap:square;stroke-width:0.8;"/>
     </g>
     <g id="line2d_28">
      <g>
       <use style="stroke:#000000;stroke-width:0.8;" x="42.529688" xlink:href="#m967637676a" y="94.964862"/>
      </g>
     </g>
     <g id="text_15">
      <!-- 0.7 -->
      <g transform="translate(21.629688 98.543768)scale(0.1 -0.1)">
       <use xlink:href="#ArialUnicodeMS-48"/>
       <use x="55.615234" xlink:href="#ArialUnicodeMS-46"/>
       <use x="83.398438" xlink:href="#ArialUnicodeMS-55"/>
      </g>
     </g>
    </g>
    <g id="ytick_7">
     <g id="line2d_29">
      <path clip-path="url(#pa1c48e2587)" d="M 42.529688 64.5385 
L 399.649688 64.5385 
" style="fill:none;stroke:#b0b0b0;stroke-linecap:square;stroke-width:0.8;"/>
     </g>
     <g id="line2d_30">
      <g>
       <use style="stroke:#000000;stroke-width:0.8;" x="42.529688" xlink:href="#m967637676a" y="64.5385"/>
      </g>
     </g>
     <g id="text_16">
      <!-- 0.8 -->
      <g transform="translate(21.629688 68.117406)scale(0.1 -0.1)">
       <use xlink:href="#ArialUnicodeMS-48"/>
       <use x="55.615234" xlink:href="#ArialUnicodeMS-46"/>
       <use x="83.398438" xlink:href="#ArialUnicodeMS-56"/>
      </g>
     </g>
    </g>
    <g id="ytick_8">
     <g id="line2d_31">
      <path clip-path="url(#pa1c48e2587)" d="M 42.529688 34.112139 
L 399.649688 34.112139 
" style="fill:none;stroke:#b0b0b0;stroke-linecap:square;stroke-width:0.8;"/>
     </g>
     <g id="line2d_32">
      <g>
       <use style="stroke:#000000;stroke-width:0.8;" x="42.529688" xlink:href="#m967637676a" y="34.112139"/>
      </g>
     </g>
     <g id="text_17">
      <!-- 0.9 -->
      <g transform="translate(21.629688 37.691045)scale(0.1 -0.1)">
       <use xlink:href="#ArialUnicodeMS-48"/>
       <use x="55.615234" xlink:href="#ArialUnicodeMS-46"/>
       <use x="83.398438" xlink:href="#ArialUnicodeMS-57"/>
      </g>
     </g>
    </g>
    <g id="text_18">
     <!-- y坐标 -->
     <defs>
      <path d="M 49.21875 51.8125 
L 29.390625 -0.875 
Q 29.34375 -0.984375 29.296875 -1.21875 
Q 26.46875 -10.015625 22.671875 -15.5 
Q 18.890625 -21 11.921875 -21 
Q 9.578125 -21 6.203125 -20.015625 
L 5.328125 -11.71875 
Q 7.859375 -12.5 10.296875 -12.5 
Q 15.1875 -12.5 17.0625 -9.8125 
Q 18.953125 -7.125 21.296875 -0.09375 
L 1.609375 51.8125 
L 11.078125 51.8125 
L 23.296875 17.875 
Q 24.359375 14.75 25.59375 9.8125 
L 25.78125 9.8125 
Q 27 15.484375 28.90625 20.609375 
L 40.28125 51.8125 
z
" id="ArialUnicodeMS-121"/>
     </defs>
     <g transform="translate(15.529688 154.975625)rotate(-90)scale(0.1 -0.1)">
      <use xlink:href="#ArialUnicodeMS-121"/>
      <use x="50" xlink:href="#ArialUnicodeMS-22352"/>
      <use x="150" xlink:href="#ArialUnicodeMS-26631"/>
     </g>
    </g>
   </g>
   <g id="line2d_33">
    <path clip-path="url(#pa1c48e2587)" d="M 164.731507 172.886773 
L 266.171611 227.806356 
L 288.724126 230.788139 
L 372.140703 198.140653 
L 297.735889 149.154211 
L 383.41696 109.082693 
L 218.8483 21.515625 
L 85.843918 76.404781 
L 58.762415 238.181745 
L 92.591187 263.435625 
L 164.731507 172.886773 
" style="fill:none;stroke:#000000;stroke-linecap:square;stroke-width:1.5;"/>
   </g>
   <g id="line2d_34">
    <defs>
     <path d="M 0 3 
C 0.795609 3 1.55874 2.683901 2.12132 2.12132 
C 2.683901 1.55874 3 0.795609 3 0 
C 3 -0.795609 2.683901 -1.55874 2.12132 -2.12132 
C 1.55874 -2.683901 0.795609 -3 0 -3 
C -0.795609 -3 -1.55874 -2.683901 -2.12132 -2.12132 
C -2.683901 -1.55874 -3 -0.795609 -3 0 
C -3 0.795609 -2.683901 1.55874 -2.12132 2.12132 
C -1.55874 2.683901 -0.795609 3 0 3 
z
" id="m12ff09ce6e" style="stroke:#000000;"/>
    </defs>
    <g clip-path="url(#pa1c48e2587)">
     <use style="stroke:#000000;" x="164.731507" xlink:href="#m12ff09ce6e" y="172.886773"/>
     <use style="stroke:#000000;" x="266.171611" xlink:href="#m12ff09ce6e" y="227.806356"/>
     <use style="stroke:#000000;" x="288.724126" xlink:href="#m12ff09ce6e" y="230.788139"/>
     <use style="stroke:#000000;" x="372.140703" xlink:href="#m12ff09ce6e" y="198.140653"/>
     <use style="stroke:#000000;" x="297.735889" xlink:href="#m12ff09ce6e" y="149.154211"/>
     <use style="stroke:#000000;" x="383.41696" xlink:href="#m12ff09ce6e" y="109.082693"/>
     <use style="stroke:#000000;" x="218.8483" xlink:href="#m12ff09ce6e" y="21.515625"/>
     <use style="stroke:#000000;" x="85.843918" xlink:href="#m12ff09ce6e" y="76.404781"/>
     <use style="stroke:#000000;" x="58.762415" xlink:href="#m12ff09ce6e" y="238.181745"/>
     <use style="stroke:#000000;" x="92.591187" xlink:href="#m12ff09ce6e" y="263.435625"/>
     <use style="stroke:#000000;" x="164.731507" xlink:href="#m12ff09ce6e" y="172.886773"/>
    </g>
   </g>
   <g id="patch_3">
    <path d="M 42.529688 275.531625 
L 42.529688 9.419625 
" style="fill:none;stroke:#000000;stroke-linecap:square;stroke-linejoin:miter;stroke-width:0.8;"/>
   </g>
   <g id="patch_4">
    <path d="M 399.649688 275.531625 
L 399.649688 9.419625 
" style="fill:none;stroke:#000000;stroke-linecap:square;stroke-linejoin:miter;stroke-width:0.8;"/>
   </g>
   <g id="patch_5">
    <path d="M 42.529687 275.531625 
L 399.649687 275.531625 
" style="fill:none;stroke:#000000;stroke-linecap:square;stroke-linejoin:miter;stroke-width:0.8;"/>
   </g>
   <g id="patch_6">
    <path d="M 42.529687 9.419625 
L 399.649687 9.419625 
" style="fill:none;stroke:#000000;stroke-linecap:square;stroke-linejoin:miter;stroke-width:0.8;"/>
   </g>
   <g id="text_19">
    <!-- A -->
    <defs>
     <path d="M 66.796875 0 
L 56.109375 0 
L 47.703125 21.78125 
L 17.828125 21.78125 
L 9.90625 0 
L -0.09375 0 
L 27.390625 71.578125 
L 37.59375 71.578125 
z
M 44.828125 29.296875 
Q 36.03125 52.546875 34.90625 55.6875 
Q 33.796875 58.84375 32.421875 64.109375 
L 32.171875 64.109375 
Q 30.8125 56.890625 28.515625 50.734375 
L 20.515625 29.296875 
z
" id="ArialUnicodeMS-65"/>
    </defs>
    <g transform="translate(164.731507 172.886773)scale(0.2 -0.2)">
     <use xlink:href="#ArialUnicodeMS-65"/>
    </g>
   </g>
   <g id="text_20">
    <!-- J -->
    <defs>
     <path d="M 42 22.90625 
Q 42 9.765625 36.6875 4.265625 
Q 31.390625 -1.21875 21.921875 -1.21875 
Q 12.3125 -1.21875 7.5 4.171875 
Q 2.6875 9.578125 2.6875 20.40625 
L 11.1875 21.578125 
Q 11.28125 14.453125 13.96875 10.890625 
Q 16.65625 7.328125 21.921875 7.328125 
Q 26.765625 7.328125 29.109375 9.625 
Q 31.453125 11.921875 31.984375 14.921875 
Q 32.515625 17.921875 32.515625 22.40625 
L 32.515625 71.578125 
L 42 71.578125 
z
" id="ArialUnicodeMS-74"/>
    </defs>
    <g transform="translate(266.171611 227.806356)scale(0.2 -0.2)">
     <use xlink:href="#ArialUnicodeMS-74"/>
    </g>
   </g>
   <g id="text_21">
    <!-- I -->
    <defs>
     <path d="M 18.703125 0 
L 9.1875 0 
L 9.1875 71.578125 
L 18.703125 71.578125 
z
" id="ArialUnicodeMS-73"/>
    </defs>
    <g transform="translate(288.724126 230.788139)scale(0.2 -0.2)">
     <use xlink:href="#ArialUnicodeMS-73"/>
    </g>
   </g>
   <g id="text_22">
    <!-- H -->
    <defs>
     <path d="M 64.203125 0 
L 54.6875 0 
L 54.6875 33.6875 
L 17.484375 33.6875 
L 17.484375 0 
L 8.015625 0 
L 8.015625 71.578125 
L 17.484375 71.578125 
L 17.484375 42.1875 
L 54.6875 42.1875 
L 54.6875 71.578125 
L 64.203125 71.578125 
z
" id="ArialUnicodeMS-72"/>
    </defs>
    <g transform="translate(372.140703 198.140653)scale(0.2 -0.2)">
     <use xlink:href="#ArialUnicodeMS-72"/>
    </g>
   </g>
   <g id="text_23">
    <!-- G -->
    <defs>
     <path d="M 71.390625 10.015625 
Q 57.859375 -1.21875 41.796875 -1.21875 
Q 25.34375 -1.21875 15.25 8.8125 
Q 5.171875 18.84375 5.171875 35.5 
Q 5.171875 45.65625 9.296875 54.421875 
Q 13.421875 63.1875 21.453125 67.984375 
Q 29.5 72.796875 41.109375 72.796875 
Q 53.171875 72.796875 60.46875 67.5 
Q 67.78125 62.203125 70.3125 51.609375 
L 61.8125 49.21875 
Q 59.8125 56.9375 54.640625 60.8125 
Q 49.46875 64.703125 41.109375 64.703125 
Q 28.171875 64.703125 21.578125 56.78125 
Q 14.984375 48.875 14.984375 36.078125 
Q 14.984375 26.515625 18.1875 20.15625 
Q 21.390625 13.8125 27.65625 10.5625 
Q 33.9375 7.328125 41.3125 7.328125 
Q 52.546875 7.328125 62.203125 14.703125 
L 62.203125 27.984375 
L 41.109375 27.984375 
L 41.109375 36.53125 
L 71.390625 36.53125 
z
" id="ArialUnicodeMS-71"/>
    </defs>
    <g transform="translate(297.735889 149.154211)scale(0.2 -0.2)">
     <use xlink:href="#ArialUnicodeMS-71"/>
    </g>
   </g>
   <g id="text_24">
    <!-- F -->
    <defs>
     <path d="M 56.296875 63.09375 
L 17.484375 63.09375 
L 17.484375 40.921875 
L 51.125 40.921875 
L 51.125 32.421875 
L 17.484375 32.421875 
L 17.484375 0 
L 8.015625 0 
L 8.015625 71.578125 
L 56.296875 71.578125 
z
" id="ArialUnicodeMS-70"/>
    </defs>
    <g transform="translate(383.41696 109.082693)scale(0.2 -0.2)">
     <use xlink:href="#ArialUnicodeMS-70"/>
    </g>
   </g>
   <g id="text_25">
    <!-- E -->
    <defs>
     <path d="M 61.375 0 
L 7.90625 0 
L 7.90625 71.578125 
L 59.71875 71.578125 
L 59.71875 63.09375 
L 17.390625 63.09375 
L 17.390625 41.21875 
L 56.984375 41.21875 
L 56.984375 32.71875 
L 17.390625 32.71875 
L 17.390625 8.5 
L 61.375 8.5 
z
" id="ArialUnicodeMS-69"/>
    </defs>
    <g transform="translate(218.8483 21.515625)scale(0.2 -0.2)">
     <use xlink:href="#ArialUnicodeMS-69"/>
    </g>
   </g>
   <g id="text_26">
    <!-- D -->
    <defs>
     <path d="M 8.015625 71.578125 
L 32.71875 71.578125 
Q 39.203125 71.578125 43.890625 70.921875 
Q 48.578125 70.265625 52.84375 67.703125 
Q 57.125 65.140625 60.328125 60.640625 
Q 63.53125 56.15625 65.359375 50.3125 
Q 67.1875 44.484375 67.1875 36.1875 
Q 67.1875 20.359375 59.671875 10.171875 
Q 52.15625 0 33.796875 0 
L 8.015625 0 
z
M 17.484375 8.5 
L 32.8125 8.5 
Q 37.5 8.5 41.1875 9.078125 
Q 44.875 9.671875 48.65625 12.25 
Q 52.4375 14.84375 54.921875 20.75 
Q 57.421875 26.65625 57.421875 36.375 
Q 57.421875 41.75 56.46875 46.40625 
Q 55.515625 51.078125 52.953125 54.90625 
Q 50.390625 58.734375 47.0625 60.515625 
Q 43.75 62.3125 40.59375 62.703125 
Q 37.453125 63.09375 32.515625 63.09375 
L 17.484375 63.09375 
z
" id="ArialUnicodeMS-68"/>
    </defs>
    <g transform="translate(85.843918 76.404781)scale(0.2 -0.2)">
     <use xlink:href="#ArialUnicodeMS-68"/>
    </g>
   </g>
   <g id="text_27">
    <!-- C -->
    <defs>
     <path d="M 68.3125 22.703125 
Q 65.1875 10.640625 57.390625 4.703125 
Q 49.609375 -1.21875 38.71875 -1.21875 
Q 21.140625 -1.21875 13.109375 9.78125 
Q 5.078125 20.796875 5.078125 36.28125 
Q 5.078125 53.421875 14.515625 63.109375 
Q 23.96875 72.796875 38.8125 72.796875 
Q 49.265625 72.796875 56.6875 67.46875 
Q 64.109375 62.15625 67.09375 51.90625 
L 57.8125 49.703125 
Q 55.46875 57.171875 50.6875 60.9375 
Q 45.90625 64.703125 38.71875 64.703125 
Q 27 64.703125 20.9375 57 
Q 14.890625 49.3125 14.890625 36.375 
Q 14.890625 21.4375 21.265625 14.15625 
Q 27.640625 6.890625 37.890625 6.890625 
Q 46.296875 6.890625 51.53125 11.421875 
Q 56.78125 15.96875 58.890625 25.09375 
z
" id="ArialUnicodeMS-67"/>
    </defs>
    <g transform="translate(58.762415 238.181745)scale(0.2 -0.2)">
     <use xlink:href="#ArialUnicodeMS-67"/>
    </g>
   </g>
   <g id="text_28">
    <!-- B -->
    <defs>
     <path d="M 48.09375 38.09375 
Q 54.828125 36.03125 58.171875 31.421875 
Q 61.53125 26.8125 61.53125 20.796875 
Q 61.53125 14.796875 58.5 9.765625 
Q 55.46875 4.734375 49.90625 2.359375 
Q 44.34375 0 34.8125 0 
L 7.421875 0 
L 7.421875 71.578125 
L 34.28125 71.578125 
Q 47.3125 71.578125 52.65625 65.90625 
Q 58.015625 60.25 58.015625 53.328125 
Q 58.015625 48.640625 55.546875 44.65625 
Q 53.078125 40.671875 48.09375 38.09375 
z
M 16.890625 41.609375 
L 32.421875 41.609375 
Q 37.203125 41.609375 40.453125 42.140625 
Q 43.703125 42.671875 46.1875 44.96875 
Q 48.6875 47.265625 48.6875 52.09375 
Q 48.6875 57.171875 46.171875 59.59375 
Q 43.65625 62.015625 40.15625 62.546875 
Q 36.671875 63.09375 31.203125 63.09375 
L 16.890625 63.09375 
z
M 16.890625 8.5 
L 34.71875 8.5 
Q 44.28125 8.5 47.984375 11.765625 
Q 51.703125 15.046875 51.703125 20.796875 
Q 51.703125 26.609375 47.75 29.859375 
Q 43.796875 33.109375 33.5 33.109375 
L 16.890625 33.109375 
z
" id="ArialUnicodeMS-66"/>
    </defs>
    <g transform="translate(92.591187 263.435625)scale(0.2 -0.2)">
     <use xlink:href="#ArialUnicodeMS-66"/>
    </g>
   </g>
   <g id="text_29">
    <!-- A -->
    <g transform="translate(164.731507 172.886773)scale(0.2 -0.2)">
     <use xlink:href="#ArialUnicodeMS-65"/>
    </g>
   </g>
  </g>
 </g>
 <defs>
  <clipPath id="pa1c48e2587">
   <rect height="266.112" width="357.12" x="42.529688" y="9.419625"/>
  </clipPath>
 </defs>
</svg>
